<svg width="68" height="63" viewBox="0 0 68 63" fill="none" xmlns="http://www.w3.org/2000/svg">
<circle cx="28" cy="35" r="28" fill="#525C90" fill-opacity="0.95"/>
<path d="M42.2504 32.8557H42.2832C42.8483 32.8557 43.3587 33.0957 43.7233 33.4832C44.1 33.8594 44.3333 34.3844 44.3333 34.9656V35.0006V34.9994V35.0331C44.3333 35.6143 44.1 36.1393 43.7233 36.5143C43.3575 36.9018 42.8471 37.1418 42.282 37.1418H42.2479H42.2492H42.0049L40.1322 48.2276C40.0529 48.7258 39.7992 49.1771 39.4188 49.4963L39.4152 49.4988C39.0628 49.81 38.601 50 38.0966 50H17.2343C16.7299 50 16.2681 49.81 15.9133 49.4963L15.9157 49.4988C15.5366 49.182 15.2826 48.7342 15.2012 48.2388L15.1999 48.2263L13.3272 37.1405H13.0501C12.485 37.1405 11.9746 36.9005 11.6101 36.5131C11.4168 36.3208 11.2631 36.0904 11.1583 35.8357C11.0535 35.581 10.9997 35.3072 11 35.0306V34.9956V34.9631C11 34.3819 11.2333 33.8569 11.6101 33.4819C11.9759 33.0945 12.4863 32.8545 13.0514 32.8545H13.0854H13.0842L42.2504 32.8557ZM18.8895 46.2477C19.0258 46.2381 19.1588 46.1999 19.2803 46.1354C19.4017 46.0709 19.509 45.9815 19.5955 45.8727L19.5967 45.8714C19.6891 45.766 19.7592 45.642 19.8027 45.5074C19.8462 45.3727 19.8621 45.2303 19.8495 45.089V45.0927L19.3282 38.128C19.3189 37.9877 19.2817 37.851 19.219 37.726C19.1563 37.6011 19.0694 37.4908 18.9636 37.4018L18.9624 37.4005C18.8599 37.3056 18.7394 37.2334 18.6084 37.1887C18.4775 37.144 18.339 37.1276 18.2016 37.1405H18.2053C18.0689 37.1501 17.9359 37.1883 17.8145 37.2528C17.693 37.3173 17.5857 37.4067 17.4992 37.5155L17.498 37.5168C17.4057 37.6222 17.3356 37.7462 17.292 37.8808C17.2485 38.0155 17.2326 38.1579 17.2452 38.2992V38.2955L17.7666 45.2602C17.7839 45.5301 17.9035 45.7823 18.0995 45.9627L18.1008 45.9639C18.2884 46.1471 18.5372 46.2491 18.7959 46.2489H18.8093H18.808L18.8895 46.2477ZM25.5795 45.1777V38.213V38.203C25.5799 38.0641 25.5527 37.9267 25.4996 37.799C25.4465 37.6713 25.3687 37.5562 25.2708 37.4605C25.1775 37.3599 25.0653 37.2799 24.941 37.2253C24.8167 37.1708 24.6829 37.1428 24.5477 37.143H24.5283C24.3933 37.1426 24.2596 37.1706 24.1355 37.2252C24.0114 37.2798 23.8994 37.3598 23.8064 37.4605C23.7086 37.5565 23.6308 37.6719 23.5777 37.7997C23.5247 37.9276 23.4974 38.0652 23.4977 38.2042V45.1889C23.4977 45.4814 23.6156 45.7452 23.8064 45.9314C23.8997 46.032 24.0119 46.112 24.1362 46.1666C24.2605 46.2212 24.3943 46.2492 24.5295 46.2489H24.5489C24.6839 46.2493 24.8176 46.2214 24.9417 46.1668C25.0658 46.1122 25.1778 46.0321 25.2708 45.9314C25.3699 45.8355 25.4489 45.7196 25.5028 45.5911C25.5567 45.4625 25.5845 45.324 25.5843 45.1839V45.1764L25.5795 45.1777ZM31.8295 45.1777V38.213V38.203C31.8299 38.0641 31.8028 37.9267 31.7497 37.799C31.6966 37.6713 31.6187 37.5562 31.5209 37.4605C31.4276 37.3599 31.3154 37.2799 31.191 37.2253C31.0667 37.1708 30.9329 37.1428 30.7978 37.143H30.7783C30.6433 37.1426 30.5097 37.1706 30.3856 37.2252C30.2614 37.2798 30.1494 37.3598 30.0565 37.4605C29.9587 37.5565 29.8809 37.6719 29.8278 37.7997C29.7747 37.9276 29.7475 38.0652 29.7478 38.2042V45.1889C29.7478 45.4814 29.8657 45.7452 30.0565 45.9314C30.1498 46.032 30.262 46.112 30.3863 46.1666C30.5106 46.2212 30.6444 46.2492 30.7796 46.2489H30.799C30.934 46.2493 31.0676 46.2214 31.1918 46.1668C31.3159 46.1122 31.4279 46.0321 31.5209 45.9314C31.62 45.8355 31.6989 45.7196 31.7529 45.5911C31.8068 45.4625 31.8345 45.324 31.8344 45.1839V45.1764L31.8295 45.1777ZM37.5583 45.2602L38.0796 38.2955C38.0914 38.1546 38.075 38.0128 38.0315 37.8787C37.9881 37.7445 37.9184 37.621 37.8268 37.5155L37.8281 37.5168C37.7417 37.4078 37.6347 37.3181 37.5135 37.2532C37.3923 37.1883 37.2595 37.1495 37.1232 37.1393H37.1196C36.9826 37.1272 36.8447 37.144 36.7143 37.1887C36.5839 37.2334 36.4637 37.3051 36.3612 37.3993L36.3625 37.398C36.2565 37.4868 36.1693 37.5969 36.1062 37.7216C36.0431 37.8462 36.0054 37.9828 35.9954 38.123V38.1267L35.4741 45.0915C35.4623 45.2323 35.4787 45.3742 35.5222 45.5083C35.5656 45.6424 35.6353 45.766 35.7269 45.8714L35.7257 45.8702C35.812 45.9791 35.919 46.0688 36.0402 46.1337C36.1614 46.1986 36.2942 46.2374 36.4305 46.2477H36.5277C36.7867 46.2477 37.0359 46.1457 37.2241 45.9627C37.4227 45.7826 37.5444 45.5294 37.5631 45.2577V45.2539L37.5583 45.2602ZM18.7485 24.886L17.2355 31.7833H15.0869L16.7299 24.4011C16.928 23.4199 17.4469 22.5886 18.1664 22.0074L18.1749 22.0012C18.8989 21.3973 19.8033 21.0688 20.7354 21.0712H20.7816H20.7792H23.4965V21.0612C23.4965 20.7687 23.6144 20.505 23.8052 20.3187C23.8986 20.2178 24.0109 20.1375 24.1354 20.0827C24.26 20.0279 24.394 19.9998 24.5295 20H30.8026C31.087 20 31.3434 20.1212 31.5245 20.3175C31.6223 20.4134 31.7001 20.5289 31.7532 20.6567C31.8062 20.7846 31.8335 20.9222 31.8332 21.0612V21.0712H34.5955C35.5689 21.0712 36.4621 21.4212 37.1621 22.0062L37.1548 21.9999C37.892 22.5917 38.4021 23.4324 38.5949 24.3736L38.5997 24.3998L40.2428 31.782H38.0942L36.5812 24.8848C36.4712 24.4115 36.2123 23.9888 35.8448 23.6823L35.8411 23.6786C35.4834 23.3748 35.0338 23.209 34.5699 23.2099H31.8295V23.2199C31.8299 23.3587 31.8028 23.4962 31.7497 23.6239C31.6966 23.7515 31.6187 23.8667 31.5209 23.9623C31.4276 24.0629 31.3154 24.1429 31.191 24.1975C31.0667 24.2521 30.9329 24.2801 30.7978 24.2798H24.5295C24.3945 24.2802 24.2608 24.2523 24.1367 24.1977C24.0126 24.1431 23.9006 24.063 23.8076 23.9623C23.7098 23.8664 23.632 23.751 23.579 23.6231C23.5259 23.4953 23.4987 23.3576 23.4989 23.2186V23.2086H20.7585C20.2936 23.2081 19.843 23.3748 19.4849 23.6798L19.4886 23.6773C19.1237 23.9813 18.8662 24.4004 18.7558 24.8698L18.7534 24.8848L18.7485 24.886Z" fill="white"/>
<ellipse cx="52.1667" cy="16" rx="11.9167" ry="12.5714" fill="white"/>
<path d="M52.1667 0C48.1592 0.051005 44.3296 1.75309 41.4957 4.74269C38.6618 7.73228 37.0483 11.7724 37 16C37.0483 20.2276 38.6618 24.2677 41.4957 27.2573C44.3296 30.2469 48.1592 31.949 52.1667 32C56.1741 31.949 60.0038 30.2469 62.8377 27.2573C65.6716 24.2677 67.285 20.2276 67.3333 16C67.285 11.7724 65.6716 7.73228 62.8377 4.74269C60.0038 1.75309 56.1741 0.051005 52.1667 0ZM60.8333 17.1429H53.25V25.1429H51.0833V17.1429H43.5V14.8571H51.0833V6.85714H53.25V14.8571H60.8333V17.1429Z" fill="#FE5F55"/>
</svg>
