<svg width="27" height="29" viewBox="0 0 27 29" fill="none" xmlns="http://www.w3.org/2000/svg">
<g clip-path="url(#clip0_556_2212)">
<path d="M8.28247 17.8609C8.39692 19.3516 9.53236 20.5125 11.5683 20.65L11.5683 21.75L12.4718 21.75L12.4718 20.6422C14.5801 20.4891 15.8119 19.3203 15.8119 17.6234C15.8119 16.0812 14.8692 15.2859 13.1841 14.8734L12.4718 14.6984L12.4718 11.7031C13.3754 11.8094 13.9506 12.3219 14.0892 13.0312L15.6734 13.0312C15.5589 11.5953 14.3723 10.4719 12.4718 10.35L12.4718 9.25L11.5683 9.25L11.5683 10.3734C9.76878 10.5562 8.54148 11.6797 8.54148 13.2688C8.54148 14.675 9.45405 15.5688 10.9705 15.9359L11.5683 16.0891L11.5683 19.2672C10.6422 19.1219 10.0293 18.5953 9.89076 17.8609L8.28247 17.8609ZM11.5608 14.4766C10.6723 14.2625 10.1904 13.8266 10.1904 13.1703C10.1904 12.4359 10.71 11.8859 11.5683 11.725L11.5683 14.475L11.5608 14.475L11.5608 14.4766ZM12.6029 16.3406C13.6826 16.6 14.181 17.0203 14.181 17.7625C14.181 18.6094 13.5606 19.1906 12.4718 19.2969L12.4718 16.3094L12.6029 16.3406Z" fill="black"/>
<path d="M12.0471 26.4375C9.2514 26.4375 6.5702 25.2852 4.59334 23.234C2.61648 21.1828 1.50589 18.4008 1.50589 15.5C1.50589 12.5992 2.61648 9.8172 4.59334 7.76602C6.5702 5.71484 9.2514 4.5625 12.0471 4.5625C14.8428 4.5625 17.524 5.71484 19.5009 7.76602C21.4777 9.8172 22.5883 12.5992 22.5883 15.5C22.5883 18.4008 21.4777 21.1828 19.5009 23.234C17.524 25.2852 14.8428 26.4375 12.0471 26.4375ZM12.0471 28C15.2422 28 18.3064 26.683 20.5657 24.3388C22.825 21.9946 24.0942 18.8152 24.0942 15.5C24.0942 12.1848 22.825 9.00537 20.5657 6.66116C18.3064 4.31696 15.2422 3 12.0471 3C8.85201 3 5.78778 4.31696 3.52851 6.66117C1.26924 9.00537 2.80421e-07 12.1848 3.81638e-07 15.5C4.82854e-07 18.8152 1.26925 21.9946 3.52852 24.3388C5.78779 26.683 8.85201 28 12.0471 28Z" fill="black"/>
<path d="M12.047 24.0937C9.85042 24.0937 7.74376 23.1883 6.19052 21.5767C4.63727 19.9651 3.76466 17.7792 3.76466 15.5C3.76466 13.2208 4.63727 11.0349 6.19052 9.4233C7.74376 7.81166 9.85042 6.90625 12.047 6.90625C14.2437 6.90625 16.3503 7.81166 17.9036 9.4233C19.4568 11.0349 20.3294 13.2208 20.3294 15.5C20.3294 17.7792 19.4568 19.9651 17.9036 21.5767C16.3503 23.1883 14.2437 24.0937 12.047 24.0937ZM12.047 24.875C13.2336 24.875 14.4085 24.6325 15.5047 24.1614C16.6009 23.6902 17.597 22.9997 18.436 22.1291C19.275 21.2586 19.9405 20.2251 20.3946 19.0877C20.8487 17.9502 21.0824 16.7311 21.0824 15.5C21.0824 14.2689 20.8487 13.0498 20.3946 11.9123C19.9405 10.7749 19.275 9.74142 18.436 8.87087C17.597 8.00032 16.6009 7.30977 15.5047 6.83863C14.4085 6.36749 13.2336 6.125 12.047 6.125C9.65073 6.125 7.35256 7.11272 5.6581 8.87087C3.96365 10.629 3.01172 13.0136 3.01172 15.5C3.01172 17.9864 3.96365 20.371 5.6581 22.1291C7.35256 23.8873 9.65073 24.875 12.047 24.875Z" fill="black"/>
</g>
<defs>
<clipPath id="clip0_556_2212">
<rect width="26.0217" height="29" fill="white"/>
</clipPath>
</defs>
</svg>
